<svg width="28" height="22" viewBox="0 0 28 22" fill="none" xmlns="http://www.w3.org/2000/svg">
<path d="M24.668 0.333336H3.33464C1.86397 0.333336 0.667969 1.52934 0.667969 3V19C0.667969 20.4707 1.86397 21.6667 3.33464 21.6667H24.668C26.1386 21.6667 27.3346 20.4707 27.3346 19V3C27.3346 1.52934 26.1386 0.333336 24.668 0.333336ZM24.668 3V3.68134L14.0013 11.9787L3.33464 3.68267V3H24.668ZM3.33464 19V7.05867L13.1826 14.7187C13.4161 14.9021 13.7044 15.0017 14.0013 15.0017C14.2982 15.0017 14.5865 14.9021 14.82 14.7187L24.668 7.05867L24.6706 19H3.33464Z" fill="black"/>
</svg>
