<svg width="22" height="28" viewBox="0 0 22 28" fill="none" xmlns="http://www.w3.org/2000/svg">
<path d="M10.9988 16.6667C13.9401 16.6667 16.3321 14.2747 16.3321 11.3333C16.3321 8.39199 13.9401 5.99999 10.9988 5.99999C8.05745 5.99999 5.66545 8.39199 5.66545 11.3333C5.66545 14.2747 8.05745 16.6667 10.9988 16.6667ZM10.9988 8.66666C12.4694 8.66666 13.6654 9.86266 13.6654 11.3333C13.6654 12.804 12.4694 14 10.9988 14C9.52811 14 8.33211 12.804 8.33211 11.3333C8.33211 9.86266 9.52811 8.66666 10.9988 8.66666Z" fill="black"/>
<path d="M10.2255 27.0853C10.4511 27.2465 10.7215 27.3331 10.9988 27.3331C11.2761 27.3331 11.5465 27.2465 11.7721 27.0853C12.1775 26.7987 21.7041 19.92 21.6655 11.3333C21.6655 5.45199 16.8801 0.666656 10.9988 0.666656C5.11748 0.666656 0.332149 5.45199 0.332149 11.3267C0.293482 19.92 9.82015 26.7987 10.2255 27.0853ZM10.9988 3.33332C15.4108 3.33332 18.9988 6.92132 18.9988 11.34C19.0268 17.2573 13.1481 22.5707 10.9988 24.3133C8.85081 22.5693 2.97081 17.2547 2.99882 11.3333C2.99882 6.92132 6.58681 3.33332 10.9988 3.33332Z" fill="black"/>
</svg>
