<svg width="26" height="26" viewBox="0 0 26 26" fill="none" xmlns="http://www.w3.org/2000/svg">
<path d="M19.6085 14.3906C19.4848 14.2667 19.3378 14.1684 19.1761 14.1013C19.0143 14.0342 18.8409 13.9997 18.6658 13.9997C18.4907 13.9997 18.3173 14.0342 18.1556 14.1013C17.9938 14.1684 17.8469 14.2667 17.7231 14.3906L15.5978 16.516C14.6125 16.2226 12.7738 15.556 11.6085 14.3906C10.4431 13.2253 9.77648 11.3866 9.48314 10.4013L11.6085 8.27595C11.7324 8.15224 11.8307 8.0053 11.8978 7.84354C11.9649 7.68179 11.9994 7.5084 11.9994 7.33329C11.9994 7.15817 11.9649 6.98478 11.8978 6.82303C11.8307 6.66127 11.7324 6.51434 11.6085 6.39062L6.27514 1.05729C6.15143 0.933358 6.00449 0.835041 5.84273 0.76796C5.68098 0.700879 5.50759 0.666351 5.33248 0.666351C5.15736 0.666351 4.98397 0.700879 4.82222 0.76796C4.66047 0.835041 4.51353 0.933358 4.38981 1.05729L0.77381 4.67329C0.267143 5.17995 -0.0181904 5.87595 -0.00752377 6.58662C0.0231429 8.48529 0.52581 15.08 5.72314 20.2773C10.9205 25.4746 17.5151 25.976 19.4151 26.008H19.4525C20.1565 26.008 20.8218 25.7306 21.3258 25.2266L24.9418 21.6106C25.0657 21.4869 25.1641 21.34 25.2311 21.1782C25.2982 21.0165 25.3327 20.8431 25.3327 20.668C25.3327 20.4928 25.2982 20.3194 25.2311 20.1577C25.1641 19.9959 25.0657 19.849 24.9418 19.7253L19.6085 14.3906ZM19.4391 23.3399C17.7751 23.3119 12.0818 22.8653 7.60848 18.3906C3.12048 13.9026 2.68581 8.18929 2.65914 6.55862L5.33248 3.88529L8.78048 7.33329L7.05648 9.05729C6.89976 9.21389 6.78453 9.40707 6.72121 9.61938C6.65789 9.83168 6.64847 10.0564 6.69381 10.2733C6.72581 10.4266 7.50848 14.0626 9.72181 16.276C11.9351 18.4893 15.5711 19.272 15.7245 19.304C15.9412 19.3506 16.1662 19.3419 16.3787 19.2788C16.5912 19.2156 16.7844 19.1 16.9405 18.9426L18.6658 17.2186L22.1138 20.6666L19.4391 23.3399Z" fill="black"/>
</svg>
